<!--?xml version="1.0" standalone="no"?-->
              <svg id="sw-js-blob-svg" viewBox="0 0 100 100" xmlns="http://www.w3.org/2000/svg" version="1.1">
                    <defs> 
                        <linearGradient id="sw-gradient" x1="0" x2="1" y1="1" y2="0">
                            <stop id="stop1" stop-color="rgba(248, 160.013, 55, 1)" offset="0%"></stop>
                            <stop id="stop2" stop-color="rgba(251, 210.323, 31, 1)" offset="100%"></stop>
                        </linearGradient>
                    </defs>
                <path fill="url(#sw-gradient)" d="M17.3,-25.4C22.5,-23.5,27,-18.9,30.2,-13.4C33.4,-7.8,35.3,-1.2,33.1,3.7C30.8,8.7,24.2,12,19.2,15C14.1,18.1,10.5,20.7,6.2,22.6C2,24.5,-2.9,25.6,-8.2,25.3C-13.5,25,-19.2,23.2,-20.7,19.2C-22.2,15.1,-19.6,8.8,-21.7,2.4C-23.8,-4,-30.5,-10.5,-31.1,-16.3C-31.7,-22.1,-26.3,-27.3,-20.1,-28.7C-13.9,-30.1,-6.9,-27.8,-0.5,-27C6,-26.3,12,-27.2,17.3,-25.4Z" width="100%" height="100%" transform="translate(50 50)" stroke-width="0" style="transition: all 0.3s ease 0s;"></path>
              </svg>