<!--?xml version="1.0" standalone="no"?-->
              <svg id="sw-js-blob-svg" viewBox="0 0 100 100" xmlns="http://www.w3.org/2000/svg" version="1.1">
                    <defs> 
                        <linearGradient id="sw-gradient" x1="0" x2="1" y1="1" y2="0">
                            <stop id="stop1" stop-color="rgba(55, 81.287, 248, 1)" offset="0%"></stop>
                            <stop id="stop2" stop-color="rgba(31, 142.941, 251, 1)" offset="100%"></stop>
                        </linearGradient>
                    </defs>
                <path fill="url(#sw-gradient)" d="M13.2,-21.4C16.3,-18.6,17.4,-13.5,18.8,-9C20.2,-4.5,22,-0.6,22.8,4.3C23.7,9.1,23.8,14.9,20.7,17.5C17.7,20.1,11.7,19.6,6,21.9C0.4,24.2,-4.9,29.3,-9.9,29.7C-14.9,30,-19.7,25.6,-26.1,21C-32.6,16.5,-40.8,11.7,-39.5,6.9C-38.3,2.1,-27.6,-2.8,-22.1,-8.1C-16.5,-13.3,-16.1,-18.9,-13.3,-21.8C-10.5,-24.7,-5.2,-24.9,-0.1,-24.7C5.1,-24.6,10.1,-24.1,13.2,-21.4Z" width="100%" height="100%" transform="translate(50 50)" stroke-width="0" style="transition: all 0.3s ease 0s;"></path>
              </svg>